<svg xmlns="http://www.w3.org/2000/svg" viewBox="0 0 450 300"><defs><style>.cls-1{isolation:isolate}.cls-2{fill:#ffdc94}.cls-3,.cls-4,.cls-5{fill:#fff}.cls-3{opacity:.24}.cls-4{opacity:.63}.cls-6{fill:#e1262c}.cls-7{fill:#e7262b}.cls-8{fill:#ed6724}.cls-9{fill:#ac2226}.cls-10{fill:#808082}.cls-11,.cls-17,.cls-20{fill:#49a69c}.cls-12{fill:#e63d31}.cls-13{fill:#8f9193}.cls-14{fill:#201d1e;opacity:.5}.cls-14,.cls-16,.cls-19,.cls-20{mix-blend-mode:multiply}.cls-15{fill:#546268}.cls-16{fill:#231f20;opacity:.2}.cls-17{mix-blend-mode:screen}.cls-18{fill:#2d3f47}.cls-19{fill:#929497;opacity:.34}.cls-20{opacity:.21}</style></defs><g class="cls-1"><g id="Layer_1" data-name="Layer 1"><path class="cls-2" d="M0.002 0H450.002V300H0.002z"/><circle class="cls-3" cx="236.631" cy="147.555" r="127.685"/><circle class="cls-4" cx="236.631" cy="147.555" r="91.883"/><path class="cls-5" d="M236.63 221.544a73.99 73.99 0 1 1 73.99-73.989 74.073 74.073 0 0 1-73.99 73.99zm0-146.807a72.818 72.818 0 1 0 72.818 72.818 72.9 72.9 0 0 0-72.817-72.818z"/><path class="cls-5" d="M279.964 174.894l-.406-.256a50.749 50.749 0 1 0-86.492-1.036l-.411.246a51.23 51.23 0 1 1 87.309 1.046z"/><path class="cls-6" d="M378.045 180.445s-9.284 2.73-12.85 2.27l-3.344-2.798a19.608 19.608 0 0 0 2.723 2.988s-12.34-1.623-16.444-10.157l.309 2.393-.937-1.997-2.06.154 1.84-1.27-.393-2.355.83 1.337 1.915-.899-.903 1.541s7.437-2.98 15.687 2.695c0 0-3.397.121-4.484.834 0 0 4.364-.981 5.837.104 0 0 6.521 4.914 12.274 5.16z"/><path class="cls-5" d="M375.102 180.454s-12.925 1.816-32.204-11.278l.68-.861s9.97 10.86 31.524 12.139z"/><path class="cls-6" d="M41.41 105.95s16.865.196 22.573 2.786l4.142 6.373a34.18 34.18 0 0 0-3.01-6.371s19.736 9.014 22.211 25.333l.708-4.146.54 3.807 3.514.797-3.719 1.176-.547 4.124-.7-2.651-3.65.518 2.292-2.107S71.846 136.755 61 123.08c0 0 5.723 1.534 7.899.901 0 0-7.775-.595-9.675-3.156 0 0-8.354-11.523-17.815-14.875z"/><path class="cls-5" d="M46.316 107.44s22.47 3.582 47.903 35.258l-1.574 1.087s-11.063-23.195-46.329-36.344zm361.84 18.848c.116-.095.24-.182.365-.277a6.99 6.99 0 0 0 2.637-3.412c0-.015.007-.022.007-.036.124-.446-.058-.687-.124-.716a.932.932 0 0 0-.285.204.089.089 0 0 1-.036.037 8.08 8.08 0 0 0-1.345 2.118 17.546 17.546 0 0 1-1.059 1.87c-.051.066-.102.14-.16.212zm-4.019 11.28a7.903 7.903 0 0 0 4.07.928 5.069 5.069 0 0 0 2.374-.694c2.082-1.293 1.636-2.185 1.475-2.528-.482-.979-1.695-1.125-3.484-1.242a1.474 1.474 0 0 1 .022-2.944 8.283 8.283 0 0 0 4.164-.92.16.16 0 0 1 .036-.022 2.733 2.733 0 0 0 1.41-1.666c0-.183-.27-.38-.438-.475a3.46 3.46 0 0 0-3.492.373c-.11.087-.22.168-.329.255a1.471 1.471 0 0 1-2.228-1.775 13.007 13.007 0 0 1-1.921 1.87c.021.395.029.79.014 1.198a21.913 21.913 0 0 1-1.673 7.642zm-33.035-3.748c-.24.3-.876 1.074.862 2.798a5.143 5.143 0 0 0 2.155 1.213 8.413 8.413 0 0 0 5.326-.343c.387-.147.782-.3 1.169-.468.03-.08.058-.168.095-.248a28.757 28.757 0 0 0-.007-5.954 11.98 11.98 0 0 1-3.485-4.216 1.514 1.514 0 0 1-.533 1.425 1.47 1.47 0 0 1-2.039-.197c-.087-.11-.182-.22-.27-.329a3.478 3.478 0 0 0-3.28-1.162c-.212.073-.526.198-.57.38a2.752 2.752 0 0 0 1.001 1.944c.015.007.022.021.037.029a8.22 8.22 0 0 0 3.842 1.833 1.473 1.473 0 0 1-.635 2.871c-1.586-.263-2.725-.394-3.434.19a1.184 1.184 0 0 0-.234.234zm3.719-12.185v.036a7.042 7.042 0 0 0 1.797 3.923c.102.117.204.234.292.35-.036-.08-.066-.167-.102-.247a17.37 17.37 0 0 1-.614-2.053 8.184 8.184 0 0 0-.833-2.367.153.153 0 0 1-.029-.044c-.124-.19-.22-.256-.248-.263-.051.015-.285.205-.263.665z"/><path class="cls-7" d="M397.178 128.5c3.45 2.394 7.86-.28 9.926-3.267.907-1.305 1.493-3.186 2.619-4.226 1.57-1.552 3.402.038 2.859 1.956a8.947 8.947 0 0 1-3.52 4.49c1.396-1.179 3.835-1.753 5.47-.71 2.298 1.397.7 3.67-.988 4.67a9.553 9.553 0 0 1-4.878 1.148c1.768.114 3.817.248 4.707 2.065.955 1.937-.421 3.439-2.017 4.427a6.572 6.572 0 0 1-3.056.912 9.82 9.82 0 0 1-6.015-1.772 13.145 13.145 0 0 1-4.04-3.69c-.818-1.381-1.715-3.877-.985-5.409z"/><path class="cls-5" d="M374.531 145.758s10.057 1.094 7.325-17.697c-2.733-18.791 22.929-11.593 22.486 1.814-.443 13.407-14.842 25.938-29.81 15.883z"/><path class="cls-7" d="M375.66 145.707c2.546-.373 8.352-2.82 6.196-17.646-2.149-14.773 13.252-13.482 19.721-5.741a4.088 4.088 0 0 0-.616-.287c-1.808-.661-2.146 1.22-2.17 2.575a4.375 4.375 0 0 0-1.706-1.972 6.145 6.145 0 0 0-5.287-1.014 4.256 4.256 0 0 0-2.435 2.226c-.789 1.892-.529 4.37-.244 6.348a49.522 49.522 0 0 1 .94 9.353 12.54 12.54 0 0 1-1.781 6.228 6.506 6.506 0 0 1-3.257 2.292c-2.185.645-4.606-.173-6.63-1a18.856 18.856 0 0 1-2.731-1.362z"/><path class="cls-7" d="M376.104 146.06a5.952 5.952 0 0 1 .66-1.848 8.86 8.86 0 0 0 .749-1.966 2.003 2.003 0 0 0-.253-1.731c-.441-.488-.86.095-1.011.515a5.376 5.376 0 0 0-.27 1.809c.002.617.075 1.231.084 1.848a5.28 5.28 0 0 0-.532-1.92c-.12-.272-.357-.824-.719-.847-.728-.045-.205 1.404-.105 1.68.237.654.456 1.313.663 1.977a9.706 9.706 0 0 1-.794-.866c-.222-.23-.443-.568-.783-.633a.334.334 0 0 0-.414.375c.01.543.51.895.923 1.156a10.415 10.415 0 0 0 1.624.901z"/><path class="cls-8" d="M400.648 130.372L396.49 130.732 398.881 134.513 400.648 130.372z"/><path class="cls-9" d="M381.561 139.904s5.397-1.544 5.569-8.96l-5.097 6.471a10.88 10.88 0 0 1-.472 2.489z"/><path class="cls-7" d="M387.114 130.568c-3.9 1.557-7.595-2.04-8.938-5.416-.59-1.474-.737-3.44-1.6-4.706-1.18-1.865-3.324-.729-3.226 1.263a8.944 8.944 0 0 0 2.42 5.167c-1.095-1.463-3.343-2.57-5.17-1.922-2.554.843-1.509 3.418-.088 4.773a9.549 9.549 0 0 0 4.495 2.214c-1.749-.286-3.776-.616-5.05.953-1.367 1.674-.364 3.446.968 4.769a6.58 6.58 0 0 0 2.774 1.575 9.819 9.819 0 0 0 6.259-.374 13.14 13.14 0 0 0 4.765-2.687c1.109-1.162 2.735-3.928 2.368-5.585z"/><path class="cls-10" d="M399.709 128.785a.308.308 0 0 0 .266-.221c.192-.66.695-1.727 1.227-1.784h.005c.343-.034.768.381 1.198 1.17a.308.308 0 0 0 .54-.295c-.579-1.063-1.167-1.55-1.796-1.489l-.01.001c-1.115.122-1.693 2.01-1.756 2.226a.308.308 0 0 0 .21.381.315.315 0 0 0 .116.01zm-2.754.138a.326.326 0 0 0 .078-.018.308.308 0 0 0 .181-.396c-.427-1.141-.945-1.707-1.583-1.728-1.107-.041-1.955 1.753-2.047 1.957a.308.308 0 0 0 .56.253c.284-.626.956-1.614 1.467-1.594.346.011.71.483 1.026 1.327a.309.309 0 0 0 .318.2z"/><path class="cls-11" d="M210.211 120.834a21.865 21.865 0 0 1-4.494-.48c-19.133-4.01-36.448-32.076-37.176-33.268l3.574-2.182c.17.276 17.105 27.717 34.466 31.352a15.597 15.597 0 0 0 12.743-2.585l2.399 3.433a19.766 19.766 0 0 1-11.512 3.73z"/><path class="cls-12" d="M172.263 85.65c2.342-.59 9.267-7.98 5.405-9.112-2.998-.776-5.494 5.738-6.336 7.77l-.288-.12c-4.069-1.697-7.292-2.877-11.74-3.06-1.131-.048-8.37-.369-6.496 2.424.668.987 2.259 1.258 3.322 1.48a31.968 31.968 0 0 0 4.181.535c2.205.163 4.427.203 6.626.19a12.432 12.432 0 0 0-8.157 3.304c-.757.714-2.608 2.443-2.083 3.634s2.593.515 3.422.142a13.474 13.474 0 0 0 3.072-2.15 45.255 45.255 0 0 0 4.863-5.012c-.873 1.611-4.146 7.051-.399 6.504 1.942-.28 3.017-3.032 3.609-4.62z"/><path class="cls-11" d="M273.436 131.415l-.2-.001c-8.722-.064-17.137-4.279-25.011-12.527l3.03-2.892c7.06 7.397 14.466 11.176 22.01 11.231h.169c10.488 0 17.71-7.221 17.782-7.295l2.986 2.936c-.344.351-8.546 8.548-20.766 8.548z"/><path class="cls-12" d="M292.471 122.385c-2.106-1.183-6.852-10.129-2.828-10.21 3.096.038 3.797 6.978 4.078 9.16l.31-.04c4.37-.572 7.79-.866 12.13.123 1.105.25 8.175 1.837 5.634 4.041-.902.778-2.509.623-3.593.558a31.966 31.966 0 0 1-4.175-.58c-2.171-.42-4.326-.963-6.444-1.553a12.432 12.432 0 0 1 7.006 5.327c.543.887 1.876 3.04 1.058 4.052s-2.638-.182-3.34-.76a13.474 13.474 0 0 1-2.401-2.878 45.254 45.254 0 0 1-3.38-6.112c.42 1.783 2.154 7.891-1.32 6.38-1.8-.778-2.116-3.715-2.271-5.404z"/><path class="cls-13" d="M278.035 121.173L278.227 123.451 330.016 119.085 344.921 87.237 309.897 85.449 297.895 118.734 278.035 121.173z"/><path class="cls-5" d="M278.09 121.615L298.222 119.143 310.204 85.911 344.899 87.683 344.944 86.792 309.59 84.987 297.569 118.325 277.981 120.731 278.09 121.615z"/><path class="cls-14" d="M330.34 118.394L278.172 122.792 278.227 123.451 329.973 119.089 330.34 118.394z"/><ellipse class="cls-5" cx="321.81" cy="103.987" rx="4.517" ry="2.407" transform="rotate(-72.428 321.81 103.987)"/><path class="cls-5" d="M248.848 113.037L227.513 110.887 225.188 157.179 247.544 157.341 248.848 113.037z"/><path class="cls-15" d="M233.436 139.428a2.549 2.549 0 0 0 3.739-1.043 3.816 3.816 0 0 0-.257 2.114c.181.699.932 1.246 1.48.876a1.482 1.482 0 0 0 .445-.597 5.48 5.48 0 0 0 .538-2.185 6.807 6.807 0 0 0 .212 2.172 1.488 1.488 0 0 0 .661 1.033c.588.255 1.174-.444 1.312-1.134a5.027 5.027 0 0 0 .075-.697 5.496 5.496 0 0 1 .176-1.407 5.632 5.632 0 0 0 .646 2.217c.265.486.886.94 1.208.51a1.02 1.02 0 0 0 .137-.573 5.623 5.623 0 0 0-.558-2.538c.693-.132 1.348.42 2.05.537 1.234.205 2.364-1.074 2.539-2.466a5.984 5.984 0 0 0-1.14-3.929 10.119 10.119 0 0 0-1.152-1.436 9.596 9.596 0 0 0-2.167-1.693 8.833 8.833 0 0 0-2.786-1.043 6.147 6.147 0 0 0-3.856.639 8.63 8.63 0 0 0-.955.547 10.05 10.05 0 0 0-1.226.946c-.248.222-.489.458-.715.7a7.488 7.488 0 0 0-2.065 4.185 4.63 4.63 0 0 0 1.66 4.265zm8.638-5.015a1.793 1.793 0 0 1 1.883-2.288c1.09.106 2.11 1.523 2.489 2.614l.02.057a2.288 2.288 0 0 1 .033 1.566 1.666 1.666 0 0 1-1.924.846 3.449 3.449 0 0 1-2.5-2.795zm-2.739 1.816a1.901 1.901 0 0 1 .072-.313 1.975 1.975 0 0 1 .76-1.148c.464-.187.83.722.984 1.091a1.596 1.596 0 0 1 .152.94.271.271 0 0 1-.059.139c-.084.091-.228.029-.329-.048a1.757 1.757 0 0 1-.6-1.013 2.679 2.679 0 0 1-.16.766.693.693 0 0 1-.148.26c-.013.009-.025.021-.037.03a.383.383 0 0 1-.484-.094.781.781 0 0 1-.15-.61zm-5.727.058a4.653 4.653 0 0 1-.058-1.83 3.918 3.918 0 0 1 .394-1.356c.915-1.666 2.762-1.137 3.72.186a2.137 2.137 0 0 1 .3.567c.453 1.307-.53 2.75-1.553 3.516a1.766 1.766 0 0 1-1.783.29 2.087 2.087 0 0 1-1.02-1.373z"/><path class="cls-16" d="M246.21 116.867L243.963 116.867 243.803 156.959 246.585 156.926 246.21 116.867z"/><path class="cls-16" d="M230.869 157.593L230.832 119.451 228.053 118.358 228.381 157.055 230.869 157.593z"/><path class="cls-15" d="M247.632 159.748L247.546 154.926 227.699 154.856 227.393 159.748 247.632 159.748z"/><path class="cls-11" d="M228.689 160.017l.736-49.172-10.397-1.754s-2.595 33.875-2.941 50.89z"/><path class="cls-17" d="M227.28 156.606l.253-10.144.02-.768.015-.64.014-.5h-1.727l-7.316-.008-.194 2.124-.92 10.088 9.84.476zm-.257-10.832l-.018.764-.084 3.286-.008.342-.159 6.362-1.49-.07-2.611-.129-.266-.013-4.37-.211.573-6.313.031-.325.262-2.892.123-1.345 6.815.004.715.001h.006l.495-.001z"/><path class="cls-17" d="M222.155 147.214c-.03.784.349 1.438.843 1.451a.36.36 0 0 0 .063 0 .784.784 0 0 0 .523-.3 1.858 1.858 0 0 0 .376-1.104c.03-.736-.303-1.357-.752-1.444a.723.723 0 0 0-.088-.008.648.648 0 0 0-.323.08h-.003a.933.933 0 0 0-.26.222 1.878 1.878 0 0 0-.379 1.103zm.266-.002a1.443 1.443 0 0 1 .288-.858.504.504 0 0 1 .348-.202l.04-.003c.355.013.622.514.6 1.117a1.45 1.45 0 0 1-.288.855.501.501 0 0 1-.388.205c-.355-.013-.625-.51-.6-1.114z"/><path class="cls-17" d="M224.27 130.896L229.57 120.083 229.348 119.914 224.31 130.194 218.699 115.034 218.458 115.194 224.27 130.896z"/><path class="cls-17" d="M226.735 136.93L226.867 136.626 219.879 131.983 219.747 132.287 226.735 136.93z"/><path class="cls-17" d="M226.325 140.914L226.457 140.61 219.469 135.967 219.338 136.271 226.325 140.914z"/><path class="cls-17" d="M227.084 150.177l.026-.34c-8.754-.472-8.806-.396-8.865-.307l.099.106.025.163c.265-.045 5.357.197 8.715.378z"/><path class="cls-17" d="M223.053 149.712L222.788 149.704 222.368 156.654 222.632 156.661 223.053 149.712z"/><path class="cls-11" d="M245.475 160.017l-.455-49.172 6.42-1.754s1.602 33.875 1.816 50.89z"/><path class="cls-17" d="M246.354 157.234l6.075-.476-.567-10.088-.12-2.124-4.517.007-1.067.001.008.5.01.64.012.768.156 10.143zm.14-12h.306l.004.001h.441l4.208-.005.077 1.345.161 2.892.02.325.353 6.313-2.698.211-.164.013-1.613.129-.92.07-.098-6.362-.005-.342-.051-3.286-.012-.764z"/><path class="cls-17" d="M249.275 146.11a.772.772 0 0 0-.16-.22l-.002-.001a.287.287 0 0 0-.2-.08.282.282 0 0 0-.054.008c-.278.087-.483.708-.464 1.444a2.671 2.671 0 0 0 .232 1.103c.095.18.208.286.322.3a.138.138 0 0 0 .04.001c.305-.013.539-.667.52-1.45a2.698 2.698 0 0 0-.234-1.104zm-.3 2.216c-.085.004-.168-.068-.24-.205a2.088 2.088 0 0 1-.178-.855c-.013-.603.151-1.104.37-1.117l.025.003c.078.01.152.077.215.202a2.08 2.08 0 0 1 .178.858c.015.604-.151 1.1-.37 1.114z"/><path class="cls-17" d="M248.203 130.896L244.93 120.083 245.068 119.914 248.178 130.194 251.643 115.034 251.792 115.194 248.203 130.896z"/><path class="cls-17" d="M246.681 136.93L246.599 136.626 250.914 131.983 250.996 132.287 246.681 136.93z"/><path class="cls-17" d="M246.934 140.914L246.853 140.61 251.167 135.967 251.249 136.271 246.934 140.914z"/><path class="cls-17" d="M246.466 150.177l-.016-.34c5.405-.472 5.437-.396 5.473-.307l-.06.106-.016.163c-.164-.045-3.308.197-5.381.378z"/><path class="cls-17" d="M248.955 149.712L249.118 149.704 249.378 156.654 249.214 156.661 248.955 149.712z"/><path class="cls-5" d="M196.388 75.23L197.393 80.095 203.759 108.271 227.19 117.227 248.185 112.574 264.001 92.63 266.315 74.051 260.152 64.474 196.388 75.23z"/><path class="cls-16" d="M229.27 124.398s16.904 5.401 26.415-6.978c0 0-11.335-.21-11.987.09s-13.92 7.202-14.429 6.888z"/><path class="cls-12" d="M268.3 69.858c.13-.022 3.73-.622 4.882-.039a19.829 19.829 0 0 0-10.559-5.141l-.19-.589-18.428 3.109a26.333 26.333 0 0 1 3.462 7.496 15.007 15.007 0 0 1 .016 8.261 10.588 10.588 0 0 1-7.795 7.305 12.525 12.525 0 0 1-15.01-8.17 14.088 14.088 0 0 1-.444-1.415 27.033 27.033 0 0 1-.44-10.068l-28.395 4.79.038.05s-8.658 8.177-9.724 16.346c0 0 4.2-7.892 7.087-9.954-.241.372-10.323 16.186-3.153 25.819-.037-.135-.936-5.797.307-8.394l.142-.25a2.082 2.082 0 0 1 .19-.294.672.672 0 0 1 .03.264 33.748 33.748 0 0 0 2.448 11.284l-.337-.155a6.506 6.506 0 0 1 .897.922l.078.086a15.45 15.45 0 0 1 2.772.521c-.702-1.902-1.175-4.04-.79-5.397a55.96 55.96 0 0 0 2.936 6.222 10.101 10.101 0 0 1 1.05.494 82.352 82.352 0 0 1 6.156 3.743c1.114.116 2.178.269 3.298.376 4.495 1.227 7.662 2.331 12.061 2.995.77.089 1.585.185 2.442.28.82.046 1.634.141 2.448.237 2.87.307 5.698.656 8.562 1.05.342.062.685.081 1.027.144 1.2.165 2.435.324 3.636.53l.17.007a6.878 6.878 0 0 0 1.329.087 18.792 18.792 0 0 0 3.394-.48c.435-.06.877-.163 1.354-.264a4.334 4.334 0 0 1 .834-.162 19.567 19.567 0 0 0 3.598-.989c-.312.159-1.337.657-3.302 1.737a28.17 28.17 0 0 1 3.282-1.437c.307-.108.663-.217 1.012-.326a3.212 3.212 0 0 1 .35-.101l-.037-.05c.314-.152.62-.303.976-.455a11.96 11.96 0 0 0 2.057-1.208c.141-.123.276-.202.411-.324a24.422 24.422 0 0 0 7.276-9.626c-.022.329-.49 5.592-1.219 6.506.228-.158 6.547-5.66 7.387-11.94a52.507 52.507 0 0 1-.549 6.754s6.955-7.806 8.135-17.18a17.507 17.507 0 0 1 .149 3.895c.177-.08 7.922-5.25.954-16.033a5.442 5.442 0 0 1 3.806 1.915 20.666 20.666 0 0 0-6.276-9.148 23.245 23.245 0 0 0-5.79-3.636z"/><path class="cls-12" d="M200.42 98.099c.387.024 17.547 14.114 17.547 14.114l36.053 6.46c-20.47 12.118-43.077 1.776-43.077 1.776a23.194 23.194 0 0 0 9.482 6.411c-19.602-1.817-24.071-14.647-24.071-14.647.407 3.174 3.616 9.887 3.616 9.887-8.744-6.495-10-23.138-10-23.138s10.063-.887 10.45-.863z"/><path class="cls-5" d="M223.314 107.367c-12.697-6.049-16.67-21.307-16.748-21.441l.002-.043a.423.423 0 0 1 .83-.165c.035.132 3.947 14.998 16.265 20.894 7.92 3.77 17.583 3.073 28.688-2.106a.471.471 0 0 1 .548.206.424.424 0 0 1-.144.582l-.022.012c-10.394 4.835-19.6 5.818-27.318 2.968-.715-.303-1.43-.606-2.101-.907z"/><path class="cls-5" d="M201.848 87.575l.055 1.901c2.78-11.475 9.62-5.573 9.62-5.573-7.92-8.644-9.675 3.672-9.675 3.672zm49.562-2.713c-5 2.71 7.451 5.077 7.451 5.077a24.034 24.034 0 0 0 2.74-7.337c.38-3.34-5.191-.45-10.19 2.26z"/><path class="cls-12" d="M236.622 85.908a.64.64 0 0 1-.64-.625c-.016-.728-.076-7.14 2.869-8.148 1.873-.64 4.264 1.043 7.303 5.152a.639.639 0 1 1-1.027.76c-3.445-4.657-5.145-4.945-5.862-4.702-1.559.534-2.056 4.52-2.003 6.909a.64.64 0 0 1-.625.653z"/><path class="cls-5" d="M254.485 78.878a.547.547 0 0 1-.547-.536c-.015-.654-.064-6.41 2.443-7.221 1.557-.505 3.527.995 6.012 4.594a.547.547 0 1 1-.9.62c-2.91-4.212-4.3-4.326-4.775-4.172-1.361.44-1.724 4.338-1.687 6.156a.546.546 0 0 1-.535.559z"/><path class="cls-18" d="M216.954 74.091L216.722 72.717 218.889 72.832 219.439 73.866 216.954 74.091z"/><path class="cls-19" d="M274.091 73.494c-10.363 5.188-19.175 8.094-26.608 9.461-9.885 1.823-17.344.948-22.806-.864-9.081-3.003-12.643-8.583-12.643-8.583l11.774-3.017 19.088-4.887 18.5-4.731 1.227 3.805a19.829 19.829 0 0 1 10.559 5.141c-1.151-.583-4.751.017-4.882.04a23.245 23.245 0 0 1 5.791 3.635z"/><path class="cls-15" d="M206.745 40.39c.212.424-.1-.266-.506-1.156a2.46 2.46 0 0 1 1.457-3.355l3.742-1.251a2.46 2.46 0 0 1 3.173 1.765l.539 2.274z"/><path class="cls-15" d="M215.69 37.407l5.649 34.153a161.013 161.013 0 0 1-12.409 2.69c-4.258.753-8.01 1.256-10.927 1.574l-.392.046c-3.856.415-6.177.524-6.177.524l-5.55-15.516c-1.358-3.774.219-11.34 9.797-16.548a31.48 31.48 0 0 1 2.783-1.348.022.022 0 0 1 .028-.012 45.099 45.099 0 0 1 7.974-2.508z"/><path class="cls-18" d="M208.93 74.25l15.888 3.753a28.621 28.621 0 0 0 21.377-1.95q.569-.3 1.126-.625l28.19-14.117a3.566 3.566 0 0 0 2.036-2.804c.174-2.088-1.979-2.359-3.276-2.492l-15.74-.645z"/><path class="cls-15" d="M209.184 74.205l15.407 2.424a28.621 28.621 0 0 0 21.377-1.95q.568-.301 1.126-.626l29.5-14.774c1.45-.946 1.67-2.956-2.982-3.412l-15.31-1.871z"/><path class="cls-11" d="M258.194 54.018a62.709 62.709 0 0 1-7.502 5.502c-10.831 6.816-23.799 10.912-34.837 13.355a6.9 6.9 0 0 1-.357.077c-2.323.511-4.559.948-6.673 1.318-4.797-6.303-15.412-23.049-2.467-33.788l8.213-2.72 1.115-.37 4.887-1.617 7.373-2.442c11.146-3.684 23.137 1.723 27.072 12.212z"/><path class="cls-5" d="M248.75 48.953l-8.24-10.915a2.015 2.015 0 0 0-2.815-.397l-1.845 1.389c.252-.064.506-.13.76-.179a12.199 12.199 0 0 1 3.067-.228l.241 3.696a6.12 6.12 0 0 0-4.243.522c-1.425.636-1.89 1.52-1.382 2.66a1.667 1.667 0 0 0 1.242.89 15.821 15.821 0 0 0 3.656.116 10.189 10.189 0 0 1 3.17.279 6 6 0 0 1 1.135.429 5.414 5.414 0 0 1 2.406 2.678 5.163 5.163 0 0 1 .366 3.45l2.09-1.574a2.012 2.012 0 0 0 .392-2.816zm-11.897 1.536a12.275 12.275 0 0 1-2.637-.184 5.39 5.39 0 0 1-4.24-3.059 4.644 4.644 0 0 1-.328-3.143c.054-.176.104-.353.177-.53l-3.052 2.31a2.006 2.006 0 0 0-.394 2.813l8.246 10.911a2.001 2.001 0 0 0 2.807.393l1.258-.943a2.575 2.575 0 0 0-.127.027 15.17 15.17 0 0 1-3.22.035l.008-3.9a7.097 7.097 0 0 0 4.787-.388c1.6-.714 2.14-1.636 1.636-2.768a2.3 2.3 0 0 0-1.445-1.319 12.352 12.352 0 0 0-3.476-.255z"/><path class="cls-20" d="M258.197 54.016a61.135 61.135 0 0 1-7.013 5.185c-6.155-19.35-17.824-24.187-27.311-24.515l4.071-1.35c11.147-3.689 23.141 1.722 27.074 12.207z"/><path class="cls-18" d="M198.324 75.663l-.321.16-.327.17c-.002-.007-.031-.051-.065-.123-.92-1.757-11.19-21.997-1.93-31.54a31.48 31.48 0 0 1 2.783-1.348c-13.154 8.34-.278 32.429-.14 32.68z"/><ellipse class="cls-18" cx="196.448" cy="54.698" rx="1.211" ry="1.707" transform="rotate(-9.029 196.448 54.698)"/><path class="cls-17" d="M215.762 37.572a10.862 10.862 0 0 0-6.153 6.733c-3.254 9.818 4.593 25.446 6.246 28.57a6.9 6.9 0 0 1-.357.077c-1.774-3.358-9.494-18.897-6.224-28.758a11.134 11.134 0 0 1 5.297-6.433l1.115-.369z"/><path class="cls-5" d="M158.388 232.794c.595-1.463 2.302-2.394 4.363-2.394a17.833 17.833 0 0 1 7.969 3.457c.396.332.942.133 1.412-.532l7.998-9.373a.792.792 0 0 0-.046-1.197 20.019 20.019 0 0 0-12.944-4.787 24.585 24.585 0 0 0-22.495 14.054h-9.674a4.91 4.91 0 0 0-9.613 0H110.06a1.246 1.246 0 1 0 0 2.493h15.429a4.908 4.908 0 0 0 9.35 0h8.86a9.823 9.823 0 0 0-.072 6.233h-21.022a1.246 1.246 0 1 0 0 2.493h22.482c3.75 4.386 11.534 5.183 10.484 7.768a4.73 4.73 0 0 1-4.55 2.525 17.058 17.058 0 0 1-7.944-3.19c-.397-.333-.943-.134-1.412.531l-7.999 9.374a.812.812 0 0 0 .045 1.196c2.244 2.66 7.391 4.388 12.975 4.388 10.237 0 19.489-5.917 23.083-14.758 5.945-14.626-12.976-14.36-11.382-18.281zm56.955 1.994c3.864-9.507-.548-15.823-12.182-15.823h-15.687a1.713 1.713 0 0 0-1.337.998l-17.861 43.942a.637.637 0 0 0 .553.93h11.898a1.715 1.715 0 0 0 1.442-.93l5.404-13.296h2.726c11.633 0 21.18-6.315 25.044-15.821zm-14.093 0a6.165 6.165 0 0 1-5.516 3.922h-3.456l3.188-7.844h3.457c2.327 0 3.273 1.595 2.327 3.922zm41.376 18.082h-18.148l2.297-5.651h12.896a1.943 1.943 0 0 0 1.481-.864l4.713-9.307a.539.539 0 0 0-.512-.864H231.26l2.135-5.253h17.35a1.643 1.643 0 0 0 1.469-.996l4.08-10.039a.66.66 0 0 0-.685-.93h-30.247a1.37 1.37 0 0 0-1.308.93l-17.862 43.943c-.056.465.193.997.659.997h30.911a1.7 1.7 0 0 0 1.375-.931l4.134-10.17a.613.613 0 0 0-.645-.865zm36.56 0h-18.149l2.298-5.651h12.896a1.943 1.943 0 0 0 1.481-.864l4.713-9.307a.539.539 0 0 0-.512-.864H267.82l2.135-5.253h17.35a1.643 1.643 0 0 0 1.469-.996l4.08-10.039a.66.66 0 0 0-.686-.93h-30.246a1.37 1.37 0 0 0-1.309.93l-17.861 43.943c-.057.465.192.997.658.997h30.912a1.699 1.699 0 0 0 1.375-.931l4.134-10.17a.613.613 0 0 0-.646-.865zm34.85-33.905h-15.421a1.713 1.713 0 0 0-1.337.998l-17.834 43.876c-.216.532.06.997.526.997h15.421c14.094 0 27.222-9.24 32.79-22.936 5.62-13.827-.051-22.935-14.144-22.935zm.052 22.935c-2.675 6.582-7.916 10.97-13.034 10.97h-3.457l8.917-21.939h3.457c5.119 0 6.792 4.388 4.117 10.97zm-207.68-10.066a1.186 1.186 0 1 0 1.185 1.186 1.186 1.186 0 0 0-1.185-1.186z"/><circle class="cls-5" cx="118.953" cy="241.746" r="1.186"/><path class="cls-5" d="M110.528 213.067c-.016.531.659.996 1.258.996h7.312a3.25 3.25 0 0 0 2.067-.996l14.631-19.478-7.944 19.544a.646.646 0 0 0 .619.93h12.298a1.597 1.597 0 0 0 1.309-.93l17.86-43.942c.217-.532.007-.997-.524-.997h-13.893a4.501 4.501 0 0 0-2.801 1.329l-19.496 25.395 1.148-25.395a1.699 1.699 0 0 0-1.719-1.33H108.76a1.62 1.62 0 0 0-1.337.998l-5.027 12.367H85.512a4.901 4.901 0 0 0-9.238 0H64.098a1.647 1.647 0 0 0-1.646 1.646 1.647 1.647 0 0 0 1.646 1.647h12.175a4.901 4.901 0 0 0 9.239 0h15.545l-11.495 28.282c-.19.465.02.93.553.93h12.297a1.7 1.7 0 0 0 1.376-.93l7.944-19.544zm36.887.996h30.91a1.7 1.7 0 0 0 1.376-.93l4.134-10.171a.613.613 0 0 0-.645-.864h-18.148l2.297-5.652h12.896a1.942 1.942 0 0 0 1.481-.864l4.713-9.306a.539.539 0 0 0-.512-.865h-14.093l2.135-5.252h17.35a1.642 1.642 0 0 0 1.469-.997l4.08-10.037a.66.66 0 0 0-.685-.932h-30.247a1.37 1.37 0 0 0-1.308.932l-17.862 43.942c-.056.465.193.996.659.996zm36.56 0h30.91a1.7 1.7 0 0 0 1.376-.93l4.134-10.171a.613.613 0 0 0-.646-.864h-18.148l2.298-5.652h12.896a1.943 1.943 0 0 0 1.481-.864l4.713-9.306a.54.54 0 0 0-.513-.865h-14.092l2.135-5.252h17.35a1.642 1.642 0 0 0 1.469-.997l4.08-10.037a.66.66 0 0 0-.686-.932h-30.246a1.37 1.37 0 0 0-1.309.932l-17.861 43.942c-.057.465.192.996.658.996zm47.946-33.904h11.036l-13.403 32.974a.646.646 0 0 0 .619.93h11.766a1.597 1.597 0 0 0 1.309-.93l13.402-32.974h9.906a1.894 1.894 0 0 0 1.442-.93l5.103-10.104a.584.584 0 0 0-.551-.931h-35.765a1.714 1.714 0 0 0-1.336.997l-4.08 10.037a.615.615 0 0 0 .552.931zm113.034 10.683c-7.193 0-13.964 4.862-16.942 12.188-2.95 7.259-.132 12.12 7.062 12.12 7.192 0 13.963-4.861 16.913-12.12 2.98-7.326.16-12.188-7.034-12.188zm-.328 12.188c-1.304 3.207-4.038 5.368-6.808 5.368-2.769 0-3.748-2.16-2.445-5.368 1.304-3.207 4.04-5.368 6.809-5.368 2.77 0 3.748 2.16 2.444 5.368zm23.643-11.647h-8.915a.871.871 0 0 0-.713.506l-9.07 22.316a.328.328 0 0 0 .314.472h5.943a.874.874 0 0 0 .733-.472l3.019-7.428h.405l.52 7.36a.534.534 0 0 0 .558.54h7.226c.304 0 .637-.236.59-.54l-1.842-8.676a12.35 12.35 0 0 0 6.776-6.448c1.866-4.592-.344-7.63-5.544-7.63zm-1.712 7.866a2.881 2.881 0 0 1-2.651 1.79h-1.993l1.454-3.58h1.993c1.148 0 1.636.71 1.197 1.79zm-98.242-17.227c-5.891 14.492 12.87 14.292 11.276 18.215a4.73 4.73 0 0 1-4.55 2.526 17.059 17.059 0 0 1-7.943-3.191c-.397-.333-.943-.134-1.413.531l-7.998 9.374a.812.812 0 0 0 .045 1.197c2.244 2.659 7.39 4.387 12.975 4.387 10.237 0 19.489-5.916 23.083-14.758 5.945-14.625-12.976-14.36-11.382-18.281.595-1.463 2.302-2.394 4.363-2.394a17.832 17.832 0 0 1 7.968 3.458c.397.331.943.132 1.413-.533l7.998-9.373a.792.792 0 0 0-.046-1.197 20.02 20.02 0 0 0-12.944-4.787c-10.105 0-19.224 5.917-22.845 14.826zm35.042 14.98a.58.58 0 0 0 0 1.16h9.514l-.788 1.938H298.35a.58.58 0 0 0 0 1.159h13.264l-5.248 12.912c-.097.237-.004.506.267.506h5.976a.865.865 0 0 0 .7-.472l3.279-8.068h6.18a.987.987 0 0 0 .752-.44l2.394-4.726a.274.274 0 0 0-.26-.44h-6.788l1.25-3.072h8.576a.79.79 0 0 0 .712-.505l2.073-5.099a.319.319 0 0 0-.315-.472H316.1a.81.81 0 0 0-.665.472l-2.093 5.148z"/><circle class="cls-5" cx="59.272" cy="182.876" r="1.567"/><path class="cls-5" d="M91.785 175.418a1.567 1.567 0 1 0-1.567-1.567 1.567 1.567 0 0 0 1.567 1.567z"/><circle class="cls-5" cx="98.691" cy="173.851" r="1.567"/><path class="cls-12" d="M144.863 249.008c.469-.665 1.015-.864 1.412-.531a17.06 17.06 0 0 0 7.943 3.19 4.73 4.73 0 0 0 4.55-2.526c1.595-3.922-17.167-3.722-11.276-18.215 3.62-8.909 12.74-14.825 22.845-14.825a20.019 20.019 0 0 1 12.944 4.786.792.792 0 0 1 .046 1.198l-7.998 9.373c-.47.665-1.016.864-1.412.532a17.832 17.832 0 0 0-7.968-3.457c-2.062 0-3.77.93-4.364 2.393-1.594 3.922 17.327 3.656 11.382 18.282-3.594 8.841-12.846 14.757-23.083 14.757-5.584 0-10.731-1.728-12.975-4.387a.812.812 0 0 1-.045-1.196zm61.495-31.91c11.634 0 16.046 6.316 12.182 15.823-3.864 9.506-13.41 15.82-25.044 15.82h-2.725l-5.405 13.296a1.714 1.714 0 0 1-1.442.932h-11.898a.637.637 0 0 1-.553-.932l17.861-43.942a1.714 1.714 0 0 1 1.337-.997zm-7.427 19.744a6.165 6.165 0 0 0 5.516-3.922c.946-2.326 0-3.921-2.327-3.921h-3.457l-3.188 7.843zm46.892 14.161a.613.613 0 0 1 .645.864l-4.134 10.17a1.7 1.7 0 0 1-1.375.932h-30.911c-.466 0-.715-.532-.659-.997l17.862-43.943a1.37 1.37 0 0 1 1.308-.93h30.247a.66.66 0 0 1 .685.93l-4.08 10.039a1.643 1.643 0 0 1-1.47.996h-17.349l-2.135 5.253h14.093a.539.539 0 0 1 .513.864l-4.713 9.306a1.943 1.943 0 0 1-1.482.864h-12.896l-2.297 5.652zm36.56 0a.613.613 0 0 1 .645.864l-4.134 10.17a1.7 1.7 0 0 1-1.375.932h-30.912c-.466 0-.715-.532-.658-.997l17.861-43.943a1.37 1.37 0 0 1 1.309-.93h30.246a.66.66 0 0 1 .686.93l-4.08 10.039a1.643 1.643 0 0 1-1.47.996h-17.349l-2.135 5.253h14.092a.539.539 0 0 1 .513.864l-4.713 9.306a1.943 1.943 0 0 1-1.481.864h-12.896l-2.298 5.652zm34.85-33.905c14.094 0 19.765 9.108 14.145 22.935-5.568 13.695-18.696 22.936-32.79 22.936h-15.421c-.466 0-.742-.466-.526-.997l17.834-43.877a1.714 1.714 0 0 1 1.337-.997zm-12.982 33.905c5.118 0 10.359-4.388 13.034-10.97 2.675-6.58 1.002-10.969-4.117-10.969h-3.457l-8.917 21.939z"/><rect class="cls-12" x="112.011" y="230.155" width="40.676" height="2.493" rx="1.246"/><circle class="cls-12" cx="109.605" cy="231.153" r="1.186"/><rect class="cls-12" x="124.557" y="238.881" width="40.676" height="2.493" rx="1.246"/><circle class="cls-12" cx="122.15" cy="239.879" r="1.186"/><path class="cls-12" d="M162.611 166.326c.532 0 .741.465.525.997l-17.861 43.943a1.596 1.596 0 0 1-1.309.93h-12.298a.646.646 0 0 1-.62-.93l7.945-19.545-14.631 19.478a3.25 3.25 0 0 1-2.067.997h-7.312c-.6 0-1.274-.465-1.257-.997l1.203-19.478-7.944 19.545a1.7 1.7 0 0 1-1.376.93H93.312c-.533 0-.742-.465-.553-.93l17.861-43.943a1.62 1.62 0 0 1 1.337-.997h13.893a1.699 1.699 0 0 1 1.72 1.33l-1.15 25.395 19.497-25.396a4.502 4.502 0 0 1 2.8-1.329zm23.776 33.905a.613.613 0 0 1 .645.864l-4.134 10.17a1.7 1.7 0 0 1-1.375.931h-30.911c-.466 0-.715-.531-.659-.997l17.862-43.942a1.37 1.37 0 0 1 1.308-.93h30.247a.66.66 0 0 1 .685.93l-4.08 10.038a1.642 1.642 0 0 1-1.47.997h-17.349l-2.135 5.252h14.093a.539.539 0 0 1 .513.865l-4.713 9.306a1.943 1.943 0 0 1-1.482.864h-12.896l-2.297 5.652zm36.56 0a.613.613 0 0 1 .645.864l-4.134 10.17a1.7 1.7 0 0 1-1.375.931H187.17c-.466 0-.715-.531-.658-.997l17.861-43.942a1.37 1.37 0 0 1 1.309-.93h30.246a.66.66 0 0 1 .686.93l-4.08 10.038a1.642 1.642 0 0 1-1.47.997h-17.349l-2.135 5.252h14.092a.539.539 0 0 1 .513.865l-4.713 9.306a1.943 1.943 0 0 1-1.481.864h-12.896l-2.298 5.652zm52.8-33.905a.584.584 0 0 1 .551.931l-5.103 10.104a1.893 1.893 0 0 1-1.442.93h-9.906l-13.402 32.975a1.596 1.596 0 0 1-1.31.93H233.37a.646.646 0 0 1-.62-.93l13.404-32.974h-11.036a.615.615 0 0 1-.552-.93l4.08-10.039a1.714 1.714 0 0 1 1.336-.997zm58.61 23.19a.319.319 0 0 1 .316.472l-2.073 5.099a.789.789 0 0 1-.712.505h-8.577l-1.249 3.072h6.788a.274.274 0 0 1 .26.44l-2.394 4.726a.987.987 0 0 1-.752.44h-6.18l-3.28 8.068a.865.865 0 0 1-.699.472h-5.976c-.27 0-.364-.27-.267-.506l9.07-22.316a.81.81 0 0 1 .665-.472zm3.915 23.767c-7.194 0-10.013-4.862-7.062-12.12 2.978-7.326 9.749-12.188 16.941-12.188s10.013 4.862 7.034 12.188c-2.95 7.258-9.721 12.12-16.913 12.12zm7.108-17.488c-2.77 0-5.505 2.16-6.809 5.368-1.303 3.207-.324 5.368 2.445 5.368 2.77 0 5.504-2.16 6.808-5.368 1.304-3.207.326-5.368-2.444-5.368zm26.698 16.475c.046.304-.287.54-.59.54h-7.227a.535.535 0 0 1-.558-.54l-.52-7.36h-.405l-3.019 7.428a.874.874 0 0 1-.733.472h-5.943a.328.328 0 0 1-.314-.472l9.07-22.317a.871.871 0 0 1 .713-.505h8.915c5.2 0 7.41 3.038 5.543 7.63a12.35 12.35 0 0 1-6.775 6.448zm-4.974-13.099a2.881 2.881 0 0 0 2.651-1.789c.44-1.08-.049-1.79-1.197-1.79h-1.992l-1.455 3.579zm-98.22-.935c.469-.665 1.015-.864 1.412-.531a17.06 17.06 0 0 0 7.943 3.19 4.73 4.73 0 0 0 4.55-2.525c1.595-3.923-17.167-3.723-11.276-18.215 3.62-8.91 12.74-14.826 22.845-14.826a20.019 20.019 0 0 1 12.944 4.787.792.792 0 0 1 .046 1.197l-7.998 9.373c-.47.665-1.016.864-1.413.532a17.832 17.832 0 0 0-7.968-3.457c-2.06 0-3.768.931-4.363 2.394-1.594 3.922 17.327 3.655 11.382 18.281-3.594 8.841-12.846 14.758-23.084 14.758-5.583 0-10.73-1.728-12.974-4.388a.812.812 0 0 1-.045-1.196z"/><path class="cls-12" d="M320.321 195.135h-13.766a.58.58 0 1 0 0 1.16h13.766zm-5.008 3.097h-13.766a.58.58 0 1 0 0 1.16h13.766z"/><rect class="cls-12" x="65.649" y="179.69" width="53.744" height="3.294" rx="1.647"/><circle class="cls-12" cx="62.469" cy="181.009" r="1.567"/><circle class="cls-12" cx="94.982" cy="171.984" r="1.567"/><circle class="cls-12" cx="101.888" cy="171.984" r="1.567"/><circle class="cls-5" cx="84.09" cy="181.337" r="3.897"/><path class="cls-12" d="M84.09 186.246a4.91 4.91 0 1 1 4.909-4.909 4.915 4.915 0 0 1-4.91 4.91zm0-7.794a2.885 2.885 0 1 0 2.885 2.885 2.889 2.889 0 0 0-2.885-2.885z"/><circle class="cls-5" cx="133.362" cy="231.153" r="3.897"/><path class="cls-12" d="M133.362 236.062a4.91 4.91 0 1 1 4.909-4.909 4.915 4.915 0 0 1-4.91 4.91zm0-7.794a2.885 2.885 0 1 0 2.884 2.885 2.889 2.889 0 0 0-2.884-2.885z"/><path class="cls-15" d="M205.237 159.791H268.026V160.43H205.237z"/><path class="cls-5" d="M173.473 152.898l.665 1.217a2.735 2.735 0 0 0 1.088 1.087l1.217.665-1.217.666a2.735 2.735 0 0 0-1.088 1.087l-.665 1.217-.666-1.217a2.735 2.735 0 0 0-1.087-1.087l-1.217-.666 1.217-.665a2.735 2.735 0 0 0 1.087-1.087zm141.76 15.051l1.264 2.314a5.198 5.198 0 0 0 2.067 2.066l2.313 1.265-2.313 1.265a5.198 5.198 0 0 0-2.067 2.067l-1.265 2.313-1.265-2.313a5.198 5.198 0 0 0-2.066-2.067l-2.314-1.265 2.314-1.265a5.198 5.198 0 0 0 2.066-2.066zm41.125-118.647l1.266 2.313a5.198 5.198 0 0 0 2.066 2.067l2.313 1.265-2.313 1.265a5.198 5.198 0 0 0-2.066 2.067l-1.266 2.313-1.265-2.313a5.198 5.198 0 0 0-2.066-2.067l-2.313-1.265 2.313-1.265a5.198 5.198 0 0 0 2.066-2.067zM22.864 263.307l.695 1.271a2.857 2.857 0 0 0 1.136 1.136l1.27.695-1.27.696a2.857 2.857 0 0 0-1.136 1.135l-.695 1.271-.696-1.27a2.857 2.857 0 0 0-1.135-1.136l-1.271-.696 1.27-.695a2.857 2.857 0 0 0 1.136-1.136zM59.272 220.6l1.265 2.313a5.198 5.198 0 0 0 2.066 2.066l2.314 1.266-2.314 1.265a5.198 5.198 0 0 0-2.066 2.066l-1.265 2.313-1.265-2.313a5.198 5.198 0 0 0-2.067-2.066l-2.313-1.265 2.313-1.265a5.198 5.198 0 0 0 2.067-2.067zM370.846 71.514l2.94 5.377a12.081 12.081 0 0 0 4.804 4.802l5.376 2.94-5.376 2.941a12.081 12.081 0 0 0-4.803 4.803l-2.94 5.376-2.941-5.376a12.081 12.081 0 0 0-4.803-4.803l-5.376-2.94 5.376-2.94a12.081 12.081 0 0 0 4.803-4.803zM80.192 242.574l2.94 5.375a12.081 12.081 0 0 0 4.804 4.803l5.376 2.94-5.376 2.941a12.081 12.081 0 0 0-4.803 4.803l-2.94 5.376-2.94-5.376a12.081 12.081 0 0 0-4.804-4.803l-5.376-2.94 5.376-2.94a12.081 12.081 0 0 0 4.803-4.804zM318.547 58.385l1.8 3.29a7.395 7.395 0 0 0 2.94 2.94l3.29 1.8-3.29 1.8a7.395 7.395 0 0 0-2.94 2.94l-1.8 3.29-1.8-3.29a7.394 7.394 0 0 0-2.94-2.94l-3.29-1.8 3.29-1.8a7.394 7.394 0 0 0 2.94-2.94zm-119.434 74.01l1.253 2.29a5.15 5.15 0 0 0 2.047 2.048l2.291 1.253-2.291 1.253a5.15 5.15 0 0 0-2.047 2.047l-1.253 2.292-1.254-2.292a5.15 5.15 0 0 0-2.047-2.047l-2.291-1.253 2.291-1.253a5.15 5.15 0 0 0 2.047-2.047z"/><path class="cls-15" d="M197.587 159.791H272.238V160.43H197.587z"/><path class="cls-15" d="M116.594 73.507c-.019.006-.032.006-.051.012a13.71 13.71 0 0 1-4.694.494c-2.688-.19-5.242-.945-9.559-3.77-.006-.014-.004-.028-.011-.042-1.247-4.548-1.874-6.837-3.125-11.415 4.18 2.585 6.68 3.245 9.282 3.349a13.722 13.722 0 0 0 4.769-.67c.019-.006.031-.007.05-.014 1.331 4.816 2 7.224 3.327 12.01.006.014.006.033.012.046zm20.355-18.671c-.01.012-.027.027-.038.039-1.827 1.938-3.178 3.58-4.507 5.18-1.51 1.819-2.981 3.65-5.057 5.894-.01.013-.027.028-.038.04-.006-.012-.007-.034-.013-.046-1.368-4.905-2.056-7.38-3.426-12.31l.038-.04c1.92-2.122 3.322-3.859 4.736-5.556 1.428-1.715 2.854-3.445 4.834-5.5l.038-.04c1.366 4.913 2.053 7.384 3.42 12.285a.169.169 0 0 1 .013.054z"/><path class="cls-5" d="M127.347 65.95l-.038.04c-3.89 4.204-5.897 6.2-10.715 7.517-.019.006-.032.006-.051.012-.006-.013-.006-.032-.012-.045-1.328-4.785-1.995-7.193-3.326-12.008.019-.007.031-.008.05-.015 4.758-1.501 6.745-3.557 10.615-7.818l.038-.04c1.37 4.93 2.058 7.405 3.426 12.31.006.012.007.034.013.046z"/><path class="cls-15" d="M162.281 51.5a33.837 33.837 0 0 0-3.486-2.124c-4.33-2.274-7.016-2.673-10.974-1.765-.02.005-.033.005-.052.01-.006-.012-.006-.031-.012-.044a8663.911 8663.911 0 0 1-3.31-11.958c.02-.005.034-.004.053-.009 4.97-.938 7.777-.468 14.675 4.52 0 .004.006.019.005.023 1.235 4.513 1.857 6.785 3.09 11.305.007.014.004.028.011.042z"/><path class="cls-5" d="M147.82 47.61c-.019.006-.032.006-.051.012-4.88 1.139-6.91 3.072-10.82 7.214l-.032.036-.006.003a.17.17 0 0 0-.013-.053c-1.367-4.902-2.054-7.373-3.42-12.286l.038-.038c.039-.039.071-.075.104-.111 3.868-3.984 5.929-5.83 10.828-6.768.02-.005.033-.004.052-.009 1.32 4.783 1.985 7.18 3.308 11.956.007.013.006.032.013.045z"/><path class="cls-15" d="M123.24 97.514c-.02.004-.034.003-.053.008a13.962 13.962 0 0 1-4.362.173c-2.928-.346-5.611-1.29-10.313-4.686-1.24-4.54-1.86-6.817-3.106-11.375 4.482 3.086 7.098 3.94 9.885 4.21a13.872 13.872 0 0 0 4.575-.323c.013-.005.033-.005.046-.01 1.33 4.807 1.994 7.205 3.327 12.003zm20.576-18.016l-.037.04c-.06.066-.113.13-.172.195a139.804 139.804 0 0 0-3.663 4.273c-1.76 2.118-3.341 4.111-5.735 6.59l-.039.038c-1.372-4.932-2.064-7.393-3.437-12.321a.286.286 0 0 1 .043-.05c2.233-2.372 3.765-4.288 5.392-6.252 1.202-1.45 2.443-2.95 4.064-4.712a3.48 3.48 0 0 1 .108-.117c.01-.013.027-.028.038-.04l3.438 12.356z"/><path class="cls-5" d="M134.209 90.595l-.039.039c-3.95 4.087-5.994 5.958-10.983 6.895v-.007l-3.32-12c.012-.006.032-.006.045-.012 4.88-1.138 6.91-3.07 10.82-7.197a.286.286 0 0 1 .044-.05l3.433 12.332z"/><path class="cls-15" d="M168.533 74.353a29.68 29.68 0 0 0-3.193-1.736c-4.33-2.006-6.942-2.167-10.858-.944-.019.007-.031.007-.05.014l-3.339-12.061c.013-.007.032-.007.045-.013 3.939-1.07 6.582-.8 10.918 1.348a31.98 31.98 0 0 1 3.341 1.93l3.136 11.462z"/><path class="cls-5" d="M154.482 71.673c-.019.007-.031.007-.05.014-4.758 1.495-6.745 3.55-10.616 7.81-.01.013-.027.029-.037.041l-3.439-12.356c.01-.013.027-.028.038-.04 3.89-4.197 5.89-6.193 10.715-7.516.013-.007.032-.007.045-.013 1.333 4.817 2.001 7.232 3.344 12.06zM119.91 85.494c-4.93 1.151-7.69.817-14.51-3.876-1.245-4.558-1.87-6.842-3.122-11.418 6.716 4.39 9.434 4.599 14.301 3.26l3.331 12.034zm20.463-18.366c-3.928 4.241-5.693 6.98-9.643 11.158-1.374-4.936-2.06-7.405-3.436-12.344 3.928-4.242 5.693-6.98 9.643-11.158l3.436 12.344z"/><path class="cls-15" d="M130.769 78.245c-3.948 4.185-5.971 6.127-10.907 7.26l-3.33-12.031c4.872-1.32 6.874-3.326 10.8-7.573l3.437 12.344z"/><path class="cls-5" d="M165.39 62.874c-6.716-4.39-9.434-4.6-14.302-3.264l-3.33-12.033c4.93-1.15 7.69-.815 14.51 3.88l3.122 11.417z"/><path class="cls-15" d="M151.136 59.597c-4.873 1.32-6.875 3.325-10.801 7.572l-3.437-12.345c3.948-4.184 5.971-6.125 10.908-7.258l3.33 12.031z"/><path class="cls-15" d="M179.569 114.281L176.827 115.025 166.438 77.619 165.954 75.878 162.606 63.816 162.606 63.803 159.27 51.793 159.258 51.741 156.147 40.546 158.792 39.827 158.889 39.803 169.029 76.335 179.569 114.281z"/><path class="cls-15" d="M99.62 92.02s-5.346 13.6 8.041 12.82c0 0-16.027 5.123-8.04-12.82z"/><path class="cls-15" d="M103.747 90.732s-3.687 9.152 5.386 8.733c0 0-10.882 3.333-5.386-8.733z"/><path class="cls-12" d="M192.108 150.634a.77.77 0 0 1 .76-.78v-.01a.784.784 0 0 1 .78.76.77.77 0 0 1-.76.78h-.01a.767.767 0 0 1-.77-.75zm-2.15.75a.763.763 0 0 1-.75-.79.762.762 0 0 1 .78-.75.77.77 0 0 1 .75.79.772.772 0 0 1-.77.75h-.01zm5.06-.83v-.04a.761.761 0 0 1 .72-.77.772.772 0 0 1 .81.72v.04a.76.76 0 0 1-.72.77h-.05a.758.758 0 0 1-.76-.72zm-8 .7a.774.774 0 0 1-.72-.77c0-.02 0-.03.01-.04a.756.756 0 0 1 .81-.72.775.775 0 0 1 .72.77v.04a.775.775 0 0 1-.77.72h-.05zm10.9-.89a.204.204 0 0 1-.01-.08.77.77 0 0 1 .7-.75.772.772 0 0 1 .84.69v.08a.753.753 0 0 1-.7.75.178.178 0 0 1-.07.01.76.76 0 0 1-.76-.7zm-13.83.64a.77.77 0 0 1-.68-.77v-.08a.78.78 0 0 1 .85-.68.768.768 0 0 1 .68.77v.08a.767.767 0 0 1-.76.68h-.09zm16.72-.93c0-.03-.01-.05-.01-.08a.768.768 0 0 1 .67-.78.768.768 0 0 1 .86.67.181.181 0 0 1 .01.08.77.77 0 0 1-.67.78l-.01-.01a.28.28 0 0 1-.09.01.765.765 0 0 1-.76-.67zm-19.63.54a.764.764 0 0 1-.65-.76.461.461 0 0 1 .01-.11.754.754 0 0 1 .87-.64.772.772 0 0 1 .65.76.499.499 0 0 1-.01.12.763.763 0 0 1-.75.64.455.455 0 0 1-.12-.01zm22.51-.92a.5.5 0 0 1-.01-.12.772.772 0 0 1 .65-.76.768.768 0 0 1 .88.64c0 .04.01.08.01.11a.764.764 0 0 1-.65.76.493.493 0 0 1-.13.01.763.763 0 0 1-.75-.64zm-25.41.4a.78.78 0 0 1-.61-.76.773.773 0 0 1 .01-.15.772.772 0 0 1 .91-.59.75.75 0 0 1 .61.75.768.768 0 0 1-.01.15.777.777 0 0 1-.75.61.83.83 0 0 1-.16-.01zm28.28-.88a.795.795 0 0 1-.02-.15.771.771 0 0 1 .63-.74.765.765 0 0 1 .9.61c0 .05.01.1.01.15a.767.767 0 0 1-.63.74.553.553 0 0 1-.14.02.768.768 0 0 1-.75-.63zm-31.15.2a.758.758 0 0 1-.57-.74 1.26 1.26 0 0 1 .02-.19.771.771 0 0 1 .94-.55.76.76 0 0 1 .57.75.668.668 0 0 1-.02.19.768.768 0 0 1-.74.57.71.71 0 0 1-.2-.03zm34-.76a.783.783 0 0 1-.02-.15.77.77 0 0 1 .61-.76.764.764 0 0 1 .91.59.714.714 0 0 1 .02.15.778.778 0 0 1-.61.76.808.808 0 0 1-.16.02.777.777 0 0 1-.75-.61zm-36.83-.05v-.01a.76.76 0 0 1-.53-.73.925.925 0 0 1 .03-.23.775.775 0 0 1 .97-.5.784.784 0 0 1 .53.74.65.65 0 0 1-.04.23.761.761 0 0 1-.73.53.947.947 0 0 1-.23-.03zm39.66-.58a1.246 1.246 0 0 1-.02-.19.786.786 0 0 1 .59-.74.767.767 0 0 1 .93.57 1.024 1.024 0 0 1 .02.19.767.767 0 0 1-.59.73.583.583 0 0 1-.18.03.786.786 0 0 1-.75-.59zm-42.44-.4v.01a.786.786 0 0 1-.5-.73.745.745 0 0 1 .05-.26.77.77 0 0 1 .99-.45.787.787 0 0 1 .5.73.842.842 0 0 1-.05.26.772.772 0 0 1-.72.5.657.657 0 0 1-.27-.06zm-44.93-1.79a.764.764 0 0 1 .75-.79.768.768 0 0 1 .78.75.765.765 0 0 1-.75.79h-.01a.767.767 0 0 1-.77-.75zm42.2.68a.787.787 0 0 1-.46-.72 1.084 1.084 0 0 1 .07-.3.77.77 0 0 1 1.01-.39.787.787 0 0 1 .46.72.652.652 0 0 1-.07.3.755.755 0 0 1-.7.45.855.855 0 0 1-.31-.06zm-44.36.05a.768.768 0 0 1-.75-.75v-.04a.775.775 0 0 1 .79-.74.778.778 0 0 1 .75.75v.04a.774.774 0 0 1-.77.75c-.01 0-.02 0-.02-.01zm5.06-.84v-.04a.768.768 0 0 1 .71-.78.756.756 0 0 1 .82.7.225.225 0 0 1 .01.08.778.778 0 0 1-.71.75h-.06a.766.766 0 0 1-.77-.71zm-8 .67a.77.77 0 0 1-.71-.75v-.08a.778.778 0 0 1 .83-.7.785.785 0 0 1 .71.75.198.198 0 0 1-.01.08.771.771 0 0 1-.76.71.128.128 0 0 1-.06-.01zm10.9-.94a.344.344 0 0 1-.01-.11.763.763 0 0 1 .66-.75.775.775 0 0 1 .87.65v.12a.756.756 0 0 1-.66.75.312.312 0 0 1-.1.01.766.766 0 0 1-.76-.67zm-13.83.62a.773.773 0 0 1-.67-.75.457.457 0 0 1 .01-.11.764.764 0 0 1 .86-.66.774.774 0 0 1 .67.75c0 .03-.01.07-.01.11a.766.766 0 0 1-.76.67c-.03 0-.07-.01-.1-.01zm16.7-1.05a1.006 1.006 0 0 1-.02-.16.76.76 0 0 1 .62-.75.763.763 0 0 1 .9.6.715.715 0 0 1 .02.15.759.759 0 0 1-.62.75v.01a.774.774 0 0 1-.15.01.761.761 0 0 1-.75-.61zm-19.61.58v.01a.785.785 0 0 1-.63-.74.886.886 0 0 1 .02-.16.75.75 0 0 1 .89-.61.771.771 0 0 1 .63.74c0 .05-.01.1-.01.15a.779.779 0 0 1-.76.63.804.804 0 0 1-.14-.02zm50.48-.36a.795.795 0 0 1-.42-.67.846.846 0 0 1 .09-.37.77.77 0 0 1 1.03-.33.769.769 0 0 1 .42.67.757.757 0 0 1-.09.36.747.747 0 0 1-.68.42.844.844 0 0 1-.35-.08zm-53.36-.24a.766.766 0 0 1-.59-.73 1.247 1.247 0 0 1 .02-.19.762.762 0 0 1 .92-.57.755.755 0 0 1 .59.73.665.665 0 0 1-.02.19.76.76 0 0 1-.74.59.564.564 0 0 1-.18-.02zm25.33-.6a.658.658 0 0 1-.03-.19.77.77 0 0 1 .57-.75.764.764 0 0 1 .94.54.61.61 0 0 1 .03.19.78.78 0 0 1-.57.75.723.723 0 0 1-.2.03.768.768 0 0 1-.74-.57zm-28.17-.13a.768.768 0 0 1-.56-.76 1.147 1.147 0 0 1 .02-.19.766.766 0 0 1 .95-.53.768.768 0 0 1 .56.72.933.933 0 0 1-.03.23.77.77 0 0 1-.74.56.722.722 0 0 1-.2-.03zm30.96-.67a1.602 1.602 0 0 1-.04-.22.782.782 0 0 1 .53-.75.774.774 0 0 1 .97.49.579.579 0 0 1 .04.22.775.775 0 0 1-.52.75.758.758 0 0 1-.25.04.766.766 0 0 1-.73-.53zm22.66.21a.756.756 0 0 1-.38-.65.733.733 0 0 1 .11-.4.764.764 0 0 1 1.05-.27.747.747 0 0 1 .37.65.802.802 0 0 1-.1.4.787.787 0 0 1-.66.38.764.764 0 0 1-.39-.11zm-56.44-.41a.741.741 0 0 1-.52-.74.587.587 0 0 1 .04-.22.755.755 0 0 1 .96-.49.76.76 0 0 1 .53.74.617.617 0 0 1-.04.23.753.753 0 0 1-.73.52.668.668 0 0 1-.24-.04zm36.52-.76a1.07 1.07 0 0 1-.05-.3.768.768 0 0 1 .48-.7.77.77 0 0 1 1 .42.638.638 0 0 1 .05.3.752.752 0 0 1-.48.7.703.703 0 0 1-.28.06.78.78 0 0 1-.72-.48zm-39.29-.21v-.01a.74.74 0 0 1-.49-.72.574.574 0 0 1 .05-.26.759.759 0 0 1 .98-.45.763.763 0 0 1 .5.73.84.84 0 0 1-.05.26.762.762 0 0 1-.72.5.857.857 0 0 1-.27-.05zm56.71-.2a.77.77 0 0 1-.34-.64.776.776 0 0 1 .14-.43.766.766 0 0 1 1.06-.2.77.77 0 0 1 .34.64.748.748 0 0 1-.13.43.758.758 0 0 1-.64.33.753.753 0 0 1-.43-.13zm-14.74-.73a.925.925 0 0 1-.08-.33.765.765 0 0 1 .44-.69.769.769 0 0 1 1.02.36.648.648 0 0 1 .08.33.76.76 0 0 1-.43.69.793.793 0 0 1-.34.08.764.764 0 0 1-.69-.44zm-44.69-.17a.772.772 0 0 1-.47-.71.805.805 0 0 1 .06-.3.767.767 0 0 1 1.01-.4.75.75 0 0 1 .46.71.647.647 0 0 1-.06.3.749.749 0 0 1-.7.46.804.804 0 0 1-.3-.06zm57.04-.84v.01a.795.795 0 0 1-.3-.63.813.813 0 0 1 .16-.45.77.77 0 0 1 1.08-.14.794.794 0 0 1 .3.62.852.852 0 0 1-.16.46.758.758 0 0 1-.61.3.775.775 0 0 1-.47-.17zm-9.75-.29a.67.67 0 0 1-.1-.36.786.786 0 0 1 .39-.69v.01a.764.764 0 0 1 1.04.28.708.708 0 0 1 .1.37.748.748 0 0 1-.38.68h-.01a.735.735 0 0 1-.37.1.765.765 0 0 1-.67-.39zm-49.97-.07a.774.774 0 0 1-.36-1.03.765.765 0 0 1 1.02-.36.767.767 0 0 1 .36 1.02.763.763 0 0 1-.69.44.784.784 0 0 1-.33-.07zm52.47-1.4a.847.847 0 0 1-.12-.43.77.77 0 0 1 .34-.64.782.782 0 0 1 1.07.22.881.881 0 0 1 .12.44.766.766 0 0 1-.34.63.813.813 0 0 1-.42.12.79.79 0 0 1-.65-.34zm4.98-.13a.76.76 0 0 1-.26-.56.78.78 0 0 1 .19-.52.773.773 0 0 1 1.09-.06.775.775 0 0 1 .26.56.789.789 0 0 1-.2.52.763.763 0 0 1-.57.26.763.763 0 0 1-.51-.2zm-2.58-1.51a.787.787 0 0 1-.15-.46.79.79 0 0 1 .3-.62v.01a.311.311 0 0 1 .07-.05.774.774 0 0 1 .23-.5.774.774 0 0 1 1.09.02.758.758 0 0 1 .21.54.756.756 0 0 1-.23.54.772.772 0 0 1-.14.11.767.767 0 0 1-.3.55v.01a.789.789 0 0 1-.46.15.76.76 0 0 1-.62-.3zm2.28-1.8a.799.799 0 0 1-.19-.52.8.8 0 0 1 .26-.57.772.772 0 0 1 1.08.07.81.81 0 0 1 .2.52.777.777 0 0 1-.26.56v.01a.773.773 0 0 1-.51.19.8.8 0 0 1-.58-.26zm-3.83-.93a.763.763 0 0 1-.18-.49.743.743 0 0 1 .28-.59.765.765 0 0 1 1.08.1.733.733 0 0 1 .18.48.793.793 0 0 1-.28.6.777.777 0 0 1-.49.18.773.773 0 0 1-.59-.28zm5.98-1.04a.734.734 0 0 1-.23-.53.762.762 0 0 1 .21-.55.773.773 0 0 1 1.09-.01.744.744 0 0 1 .23.54.76.76 0 0 1-.22.54.74.74 0 0 1-.55.23.741.741 0 0 1-.53-.22zm-7.78-1.34a.75.75 0 0 1-.13-.43.781.781 0 0 1 .33-.63.77.77 0 0 1 1.07.2.74.74 0 0 1 .13.42.762.762 0 0 1-.33.64.76.76 0 0 1-.43.14.773.773 0 0 1-.64-.34zm9.77-.77a.775.775 0 0 1-.28-.6.733.733 0 0 1 .18-.48.765.765 0 0 1 1.08-.1.773.773 0 0 1 .28.59.74.74 0 0 1-.18.49.773.773 0 0 1-.59.28.74.74 0 0 1-.49-.18zm-11.32-1.78a.806.806 0 0 1-.09-.36.778.778 0 0 1 .4-.68.77.77 0 0 1 1.04.31.721.721 0 0 1 .09.37.743.743 0 0 1-.4.67.7.7 0 0 1-.36.1.768.768 0 0 1-.68-.41zm13.14-.49a.76.76 0 0 1-.33-.64.84.84 0 0 1 .14-.43.778.778 0 0 1 1.07-.18.775.775 0 0 1 .33.64.843.843 0 0 1-.14.43.772.772 0 0 1-.63.32.719.719 0 0 1-.44-.14zm-14.39-2.24a.748.748 0 0 1-.06-.26.786.786 0 0 1 .5-.73.772.772 0 0 1 .99.44v.01a.74.74 0 0 1 .05.26.778.778 0 0 1-.49.73.912.912 0 0 1-.28.05.75.75 0 0 1-.71-.5zm16.01-.17a.778.778 0 0 1-.39-.68.684.684 0 0 1 .1-.36.771.771 0 0 1 1.04-.3.752.752 0 0 1 .39.68.808.808 0 0 1-.09.37.767.767 0 0 1-.67.39.744.744 0 0 1-.38-.1zm-16.89-2.71a.926.926 0 0 1-.01-.16.76.76 0 0 1 .6-.76.764.764 0 0 1 .91.59.803.803 0 0 1 .02.15.759.759 0 0 1-.6.76.918.918 0 0 1-.17.02.779.779 0 0 1-.75-.6zm18.24.14a.763.763 0 0 1-.49-.73.847.847 0 0 1 .05-.27.768.768 0 0 1 1-.43.76.76 0 0 1 .48.73.842.842 0 0 1-.05.26.775.775 0 0 1-.71.49.884.884 0 0 1-.28-.05zm-18.62-3.16v-.04a.768.768 0 0 1 .74-.76.774.774 0 0 1 .79.74v.04a.77.77 0 0 1-.74.76h-.02a.757.757 0 0 1-.77-.74zm19.56.41a.769.769 0 0 1-.62-.74.756.756 0 0 1 .01-.16.778.778 0 0 1 .9-.61.779.779 0 0 1 .63.75.784.784 0 0 1-.02.15.76.76 0 0 1-.75.62.778.778 0 0 1-.15-.01zm-18.74-2.58a.75.75 0 0 1-.63-.77.417.417 0 0 1 .01-.11.76.76 0 0 1 .88-.63.77.77 0 0 1 .64.77c0 .04-.01.08-.01.12a.768.768 0 0 1-.75.63.672.672 0 0 1-.14-.01zm18.35-1.03v-.04a.76.76 0 0 1 .73-.76.757.757 0 0 1 .8.73v.04a.755.755 0 0 1-.73.76h-.04a.767.767 0 0 1-.76-.73zm-17.69-1.8a.754.754 0 0 1-.44-.69.663.663 0 0 1 .07-.33.777.777 0 0 1 1.02-.37.782.782 0 0 1 .44.69.755.755 0 0 1-.07.33.777.777 0 0 1-.7.45.726.726 0 0 1-.32-.08zm17.24-.87a.934.934 0 0 1-.03-.23.772.772 0 0 1 .54-.73.773.773 0 0 1 .96.51.652.652 0 0 1 .04.23.779.779 0 0 1-.55.73.828.828 0 0 1-.22.04.78.78 0 0 1-.74-.55zm-15.84-1.67a.761.761 0 0 1-.28-.6.734.734 0 0 1 .18-.48.762.762 0 0 1 1.08-.1.77.77 0 0 1 .28.59.82.82 0 0 1-.18.49.775.775 0 0 1-.59.28.74.74 0 0 1-.49-.18zm14.72-.76a.676.676 0 0 1-.12-.43.74.74 0 0 1 .34-.63.75.75 0 0 1 1.06.22.748.748 0 0 1 .13.43.753.753 0 0 1-.35.63.72.72 0 0 1-.42.13.783.783 0 0 1-.64-.35zm-12.74-1.36a.79.79 0 0 1-.15-.46.745.745 0 0 1 .31-.62.766.766 0 0 1 1.07.16.791.791 0 0 1 .15.46.758.758 0 0 1-.3.61h-.01a.738.738 0 0 1-.46.16.768.768 0 0 1-.61-.31zm10.95-.57a.755.755 0 0 1-.3-.61.784.784 0 0 1 .15-.46.757.757 0 0 1 1.07-.15.741.741 0 0 1 .31.61.787.787 0 0 1-.15.46.77.77 0 0 1-.62.31.735.735 0 0 1-.46-.16zm-8.53-1.04a.761.761 0 0 1-.06-.3.768.768 0 0 1 .48-.7.766.766 0 0 1 1 .41.804.804 0 0 1 .06.3.758.758 0 0 1-.47.7.65.65 0 0 1-.3.06.765.765 0 0 1-.71-.47zm6.2-.09a.767.767 0 0 1-.57-.74.638.638 0 0 1 .03-.19.757.757 0 0 1 .93-.55.756.756 0 0 1 .57.74.694.694 0 0 1-.02.2.77.77 0 0 1-.74.57.678.678 0 0 1-.2-.03zm-3.45-.86v-.07a.762.762 0 0 1 .68-.77.773.773 0 0 1 .85.68v.08a.77.77 0 0 1-.69.77h-.08a.768.768 0 0 1-.76-.69zm103.238 34.553a.455.455 0 0 0 0-.91.455.455 0 0 0 0 .91z"/><path class="cls-12" d="M309.988 160.474a.761.761 0 0 1-.6-.76.78.78 0 0 1 .01-.15.764.764 0 0 1 .91-.59.77.77 0 0 1 .61.76.382.382 0 0 1-.02.15.76.76 0 0 1-.75.61 1.033 1.033 0 0 1-.16-.02zm2.31-.64a.85.85 0 0 1-.05-.26.754.754 0 0 1 .5-.72.764.764 0 0 1 .99.45.847.847 0 0 1 .05.27.783.783 0 0 1-.51.72.842.842 0 0 1-.26.04.764.764 0 0 1-.72-.5zm-5.23-.76a.775.775 0 0 1-.28-.59.81.81 0 0 1 .17-.49.765.765 0 0 1 1.08-.11.786.786 0 0 1 .29.6.737.737 0 0 1-.18.48.754.754 0 0 1-.59.29.763.763 0 0 1-.49-.18zm7.73-.68a.768.768 0 0 1-.38-.65.71.71 0 0 1 .11-.4.767.767 0 0 1 1.05-.28.797.797 0 0 1 .38.66.863.863 0 0 1-.11.4.763.763 0 0 1-.66.37.777.777 0 0 1-.39-.1zm-9.61-2a.847.847 0 0 1-.05-.27.773.773 0 0 1 .51-.71.756.756 0 0 1 .98.46.874.874 0 0 1 .05.27.775.775 0 0 1-.51.71.795.795 0 0 1-.26.05.774.774 0 0 1-.72-.51zm10.73-.68a.756.756 0 0 1-.76-.77.771.771 0 0 1 .78-.76.784.784 0 0 1 .76.78.766.766 0 0 1-.77.75h-.01zm-10.42-1.68a.784.784 0 0 1-.7-.76.178.178 0 0 1 .01-.07.758.758 0 0 1 .83-.7.787.787 0 0 1 .7.76.163.163 0 0 1-.01.07.76.76 0 0 1-.76.7h-.07zm52.29-.73a.768.768 0 0 1-.74-.75v-.04a.768.768 0 0 1 .78-.75.768.768 0 0 1 .75.75v.04a.772.772 0 0 1-.77.75h-.02zm2.16-.79v-.08a.76.76 0 0 1 .7-.75.763.763 0 0 1 .83.69v.08a.77.77 0 0 1-.7.76h-.07a.77.77 0 0 1-.76-.7zm-5.13.56a.762.762 0 0 1-.67-.78v-.08a.78.78 0 0 1 .86-.67.777.777 0 0 1 .67.78v.08a.765.765 0 0 1-.76.67h-.1zm-40.16-.66a.805.805 0 0 1-.06-.3.751.751 0 0 1 .48-.7.764.764 0 0 1 1 .41v.01a.798.798 0 0 1 .06.3.778.778 0 0 1-.48.7.714.714 0 0 1-.29.06.766.766 0 0 1-.71-.48zm48.18-.25a.607.607 0 0 1-.02-.19.757.757 0 0 1 .59-.73.774.774 0 0 1 .92.57 1.266 1.266 0 0 1 .02.2.765.765 0 0 1-.59.73 1.035 1.035 0 0 1-.18.02.757.757 0 0 1-.74-.6zm-10.95.41a.78.78 0 0 1-.61-.76.934.934 0 0 1 .02-.16.765.765 0 0 1 .91-.58.77.77 0 0 1 .61.75 1.004 1.004 0 0 1-.02.16.76.76 0 0 1-.75.6.853.853 0 0 1-.16-.01zm13.75-1.17a.802.802 0 0 1-.06-.3.76.76 0 0 1 .47-.7.78.78 0 0 1 1.01.41.804.804 0 0 1 .06.3.767.767 0 0 1-.48.7.586.586 0 0 1-.29.06.758.758 0 0 1-.71-.47zm-16.62.43a.748.748 0 0 1-.55-.72.882.882 0 0 1 .03-.23.772.772 0 0 1 .95-.52h.01a.761.761 0 0 1 .54.73.471.471 0 0 1-.03.23.75.75 0 0 1-.73.54.855.855 0 0 1-.22-.03zm-43.01-.66a.756.756 0 0 1-.44-.68.835.835 0 0 1 .07-.34.768.768 0 0 1 1.02-.37.771.771 0 0 1 .44.69.788.788 0 0 1-.07.33.763.763 0 0 1-.69.44.784.784 0 0 1-.33-.07zm40.21-.24a.786.786 0 0 1-.52-.71.86.86 0 0 1 .05-.27.759.759 0 0 1 .97-.47.77.77 0 0 1 .52.71.838.838 0 0 1-.04.27.776.776 0 0 1-.73.51.72.72 0 0 1-.25-.04zm22.05-.76a.676.676 0 0 1-.12-.43.742.742 0 0 1 .34-.63.774.774 0 0 1 1.07.22.818.818 0 0 1 .12.43.74.74 0 0 1-.34.63.775.775 0 0 1-.43.13.757.757 0 0 1-.64-.35zm-55.03.02a.776.776 0 0 1-.19-.52.743.743 0 0 1 .26-.56.771.771 0 0 1 1.08.06.726.726 0 0 1 .19.52.716.716 0 0 1-.25.56.779.779 0 0 1-.51.2.768.768 0 0 1-.58-.26zm30.23-.27a.786.786 0 0 1-.5-.73.807.807 0 0 1 .06-.26.754.754 0 0 1 .99-.44.756.756 0 0 1 .49.72.874.874 0 0 1-.05.27.78.78 0 0 1-.72.49.874.874 0 0 1-.27-.05zm-2.72-1.06a.768.768 0 0 1-.48-.73.74.74 0 0 1 .05-.26.768.768 0 0 1 .99-.44v.01a.755.755 0 0 1 .49.73.87.87 0 0 1-.05.26.78.78 0 0 1-.72.49.74.74 0 0 1-.28-.06zm-33.33-.23a.78.78 0 0 1-.24-.57.782.782 0 0 1 .2-.51.76.76 0 0 1 1.08-.04.753.753 0 0 1 .25.57.784.784 0 0 1-.2.51.753.753 0 0 1-.57.25.769.769 0 0 1-.52-.21zm3.78-.24a.776.776 0 0 1-.33-.64.854.854 0 0 1 .14-.43.769.769 0 0 1 1.07-.18.773.773 0 0 1 .33.64.844.844 0 0 1-.14.43.772.772 0 0 1-.63.32.722.722 0 0 1-.44-.14zm26.85-.58a.754.754 0 0 1-.49-.73.795.795 0 0 1 .05-.26.761.761 0 0 1 .99-.44.755.755 0 0 1 .49.73.637.637 0 0 1-.05.26.74.74 0 0 1-.71.49.688.688 0 0 1-.28-.05zm-29.25-.84a.78.78 0 0 1-.43-.7.785.785 0 0 1 .09-.33.765.765 0 0 1 1.03-.34.573.573 0 0 1 .16.11.772.772 0 0 1 .14-.11.764.764 0 0 1 1.06.24.826.826 0 0 1 .11.4.763.763 0 0 1-.36.66.763.763 0 0 1-.91-.08.78.78 0 0 1-.55.23.843.843 0 0 1-.34-.08zm26.54-.16a.775.775 0 0 1-.51-.71.575.575 0 0 1 .05-.26.757.757 0 0 1 .97-.47.767.767 0 0 1 .52.71.745.745 0 0 1-.05.26.757.757 0 0 1-.72.52.84.84 0 0 1-.26-.05zm-2.72-.89a.766.766 0 0 1-.55-.72.835.835 0 0 1 .03-.23.772.772 0 0 1 .96-.52.76.76 0 0 1 .54.73.89.89 0 0 1-.03.23.758.758 0 0 1-.73.54.803.803 0 0 1-.22-.03zm-26.41-.08h-.01a.777.777 0 0 1-.49-.73.79.79 0 0 1 .05-.26.766.766 0 0 1 .99-.45.762.762 0 0 1 .49.73.739.739 0 0 1-.04.26.774.774 0 0 1-.72.5.847.847 0 0 1-.27-.05zm5.88-.59a.746.746 0 0 1-.05-.26.773.773 0 0 1 .51-.72.772.772 0 0 1 .98.46.745.745 0 0 1 .05.26.76.76 0 0 1-.51.72.767.767 0 0 1-.26.05.76.76 0 0 1-.72-.51zm17.77-.06a.77.77 0 0 1-.6-.76.897.897 0 0 1 .02-.16.767.767 0 0 1 .92-.57.772.772 0 0 1 .6.76c-.01.05-.01.1-.02.15a.768.768 0 0 1-.75.6 1.022 1.022 0 0 1-.17-.02zm-15.01-.83a.768.768 0 0 1-.01-.15.77.77 0 0 1 .61-.76.78.78 0 0 1 .91.6.768.768 0 0 1 .01.15.74.74 0 0 1-.61.75.406.406 0 0 1-.16.02.777.777 0 0 1-.75-.61zm-11.36.55a.785.785 0 0 1-.53-.74.652.652 0 0 1 .04-.23.763.763 0 0 1 .96-.49.773.773 0 0 1 .54.74.876.876 0 0 1-.04.22.769.769 0 0 1-.73.53 1.01 1.01 0 0 1-.24-.03zm23.57-.24a.747.747 0 0 1-.65-.75v-.11a.767.767 0 0 1 .87-.65.752.752 0 0 1 .66.74.5.5 0 0 1-.01.12.763.763 0 0 1-.75.66.499.499 0 0 1-.12-.01zm-9.34-.83a.2.2 0 0 1-.01-.08.768.768 0 0 1 .69-.76.757.757 0 0 1 .84.68c0 .03.01.05.01.08a.77.77 0 0 1-.69.76.225.225 0 0 1-.08.01.76.76 0 0 1-.76-.69zm5.79-.22v-.04a.772.772 0 0 1 .82-.72.762.762 0 0 1 .72.77v.04a.776.776 0 0 1-.81.72.769.769 0 0 1-.73-.77zm-2.9-.03a.769.769 0 0 1 .75-.78.754.754 0 0 1 .78.74.765.765 0 0 1-.75.79h-.02a.764.764 0 0 1-.76-.75zm-19.87.49a.77.77 0 0 1-.56-.76.61.61 0 0 1 .03-.19.765.765 0 0 1 .95-.53.747.747 0 0 1 .55.72.475.475 0 0 1-.03.23.757.757 0 0 1-.73.56.783.783 0 0 1-.21-.03zm-2.78-.75a.768.768 0 0 1-.59-.73 1.39 1.39 0 0 1 .02-.2.76.76 0 0 1 .93-.55v-.01a.785.785 0 0 1 .59.74.593.593 0 0 1-.03.19.766.766 0 0 1-.74.59.572.572 0 0 1-.18-.03zm-40.9-1.13a.77.77 0 0 1 .59-.92.764.764 0 0 1 .91.59.765.765 0 0 1-.58.91.918.918 0 0 1-.17.02.768.768 0 0 1-.75-.6zm38.09.49a.77.77 0 0 1-.61-.76.806.806 0 0 1 .02-.15.755.755 0 0 1 .91-.59.743.743 0 0 1 .6.75.937.937 0 0 1-.01.16.768.768 0 0 1-.75.6.883.883 0 0 1-.16-.01zm-35.24-1.1a.793.793 0 0 1-.02-.15.778.778 0 0 1 .63-.74.763.763 0 0 1 .89.61.818.818 0 0 1 .02.16.788.788 0 0 1-.63.74.73.73 0 0 1-.14.01.753.753 0 0 1-.75-.63zm32.41.54a.764.764 0 0 1-.63-.77.499.499 0 0 1 .01-.12.762.762 0 0 1 .89-.62.765.765 0 0 1 .63.78.46.46 0 0 1-.01.11.77.77 0 0 1-.75.63.677.677 0 0 1-.14-.01zm-29.55-1.04a.5.5 0 0 1-.01-.12.77.77 0 0 1 .65-.76.767.767 0 0 1 .87.65.461.461 0 0 1 .01.11.763.763 0 0 1-.65.76.499.499 0 0 1-.12.01.753.753 0 0 1-.75-.65zm26.71.58a.763.763 0 0 1-.66-.75.5.5 0 0 1 .01-.12.769.769 0 0 1 .87-.65.762.762 0 0 1 .65.75v.12a.781.781 0 0 1-.76.66c-.04 0-.08-.01-.11-.01zm-23.84-1v-.08a.769.769 0 0 1 .68-.77.766.766 0 0 1 .85.67v.08a.77.77 0 0 1-.67.78v-.01a.32.32 0 0 1-.1.01.774.774 0 0 1-.76-.68zm20.98.63a.762.762 0 0 1-.68-.77v-.08a.765.765 0 0 1 .85-.67.755.755 0 0 1 .68.77v.07a.775.775 0 0 1-.76.69.288.288 0 0 1-.09-.01zm-18.09-.94v-.08a.77.77 0 0 1 .7-.75.76.76 0 0 1 .83.7c0 .02.01.05.01.08a.77.77 0 0 1-.71.75h-.06a.772.772 0 0 1-.77-.7zm14.51-.12c0-.01.01-.02.01-.04a.754.754 0 0 1 .82-.7h.01a.767.767 0 0 1 .7.75v.07a.785.785 0 0 1-.83.71.778.778 0 0 1-.71-.79zm-11.61-.1v-.04a.769.769 0 0 1 .73-.77.763.763 0 0 1 .8.73v.04a.758.758 0 0 1-.72.76h-.04a.767.767 0 0 1-.77-.72zm9.45.71a.793.793 0 0 1-.74-.77v-.04a.779.779 0 0 1 .81-.73.768.768 0 0 1 .73.76v.04a.772.772 0 0 1-.77.74h-.03zm-6.54-.84a.761.761 0 0 1 .75-.78.768.768 0 0 1 .78.75.768.768 0 0 1-.75.78h-.01a.76.76 0 0 1-.77-.75zm3.66.75v-.01a.756.756 0 0 1-.76-.77.771.771 0 0 1 .78-.76.762.762 0 0 1 .75.78.76.76 0 0 1-.76.76h-.01z"/></g></g></svg>