<svg xmlns="http://www.w3.org/2000/svg" viewBox="0 0 161.499 165.644"><g data-name="Layer 2"><g data-name="ART"><path d="M146.775 73.978A72.797 72.797 0 1173.978 1.18a72.797 72.797 0 0172.797 72.798zM73.978 54.875A19.103 19.103 0 1093.08 73.978a19.103 19.103 0 00-19.103-19.103z" fill="#cedd3e"/><path d="M73.978 147.475a73.497 73.497 0 1173.498-73.497 73.58 73.58 0 01-73.498 73.497zm0-145.594a72.097 72.097 0 1072.097 72.097A72.179 72.179 0 0073.978 1.88zm0 91.9A19.803 19.803 0 1193.78 73.977 19.826 19.826 0 0173.978 93.78zm0-38.206A18.402 18.402 0 1092.38 73.978a18.423 18.423 0 00-18.403-18.403z" fill="#3e4147"/><path d="M10.665 109.89c13.59-9.357 31.527-21.373 45.03-30.365a19.107 19.107 0 0017.767 13.543c-6.988 13.396-16.964 33.05-24.929 49.126a73.02 73.02 0 01-37.868-32.304zM94.452 4.12c-4.376 14.938-11.527 37.785-15.8 51.333a19.127 19.127 0 0114 14.5c11.13-7.93 29.073-20.737 44.655-31.862A72.947 72.947 0 0094.452 4.12z" fill="#fff8e9"/><path d="M73.978 147.955a73.978 73.978 0 1173.978-73.977 74.062 74.062 0 01-73.978 73.977zm0-145.594a71.616 71.616 0 1071.617 71.617A71.697 71.697 0 0073.978 2.36zm0 91.9a20.283 20.283 0 1120.284-20.283A20.306 20.306 0 0173.978 94.26zm0-38.205A17.922 17.922 0 1091.9 73.978a17.943 17.943 0 00-17.922-17.922z" fill="#3e4147"/><path d="M159.057 124.884l-52.92-31.709a2.595 2.595 0 00-3.837 2.908l16.233 59.52a2.595 2.595 0 004.07 1.384l9.989-7.571a2.595 2.595 0 013.635.5l10.25 13.521a2.595 2.595 0 003.634.5l8.44-6.397a2.595 2.595 0 00.5-3.635l-10.25-13.52a2.595 2.595 0 01.5-3.636l9.99-7.571a2.595 2.595 0 00-.234-4.294z" fill="#d8e9f7"/><path d="M148.549 165.644a3.774 3.774 0 01-3.014-1.493l-10.25-13.522a1.413 1.413 0 00-1.98-.272l-9.989 7.572a3.774 3.774 0 01-5.921-2.016l-16.234-59.52a3.775 3.775 0 015.582-4.23l52.921 31.708a3.776 3.776 0 01.339 6.248l-9.988 7.571a1.416 1.416 0 00-.273 1.982l10.25 13.52a3.777 3.777 0 01-.728 5.29l-8.44 6.397a3.755 3.755 0 01-2.275.765zm-14.398-17.936a3.79 3.79 0 013.017 1.495l10.249 13.522a1.42 1.42 0 001.981.272l8.44-6.398a1.413 1.413 0 00.271-1.98l-10.249-13.521a3.78 3.78 0 01.728-5.29l9.99-7.572a1.414 1.414 0 00-.129-2.34L105.53 94.187a1.415 1.415 0 00-2.092 1.585l16.234 59.52a1.415 1.415 0 002.219.754l9.988-7.571a3.749 3.749 0 012.272-.767z" fill="#3e4147"/></g></g></svg>
